<svg height="504pt" viewBox="0 -4 504 504" width="504pt" xmlns="http://www.w3.org/2000/svg"><path d="m144.652344 325.738281c-7.539063-2.539062-16.191406-.828125-22.199219 5.175781-6.007813 6.007813-7.71875 14.660157-5.175781 22.199219 7.535156 2.539063 16.191406.832031 22.195312-5.175781 6.007813-6.007812 7.71875-14.660156 5.179688-22.199219zm0 0" fill="#ff4397"/><path d="m402.617188 367.777344c-7.539063-2.542969-16.191407-.828125-22.195313 5.175781-6.007813 6.007813-7.71875 14.660156-5.179687 22.199219 7.539062 2.539062 16.191406.828125 22.199218-5.179688 6.007813-6.003906 7.714844-14.660156 5.175782-22.195312zm0 0" fill="#ff4397"/><path d="m442.347656 413.28125c-4.703125-4.699219-14.640625-2.382812-22.199218 5.175781-7.558594 7.5625-9.878907 17.5-5.179688 22.199219 4.703125 4.699219 14.640625 2.382812 22.199219-5.175781 7.5625-7.5625 9.878906-17.5 5.179687-22.199219zm0 0" fill="#ff4397"/><path d="m177.773438 376.28125c-7.539063-2.542969-16.195313-.828125-22.199219 5.175781-6.007813 6.007813-7.714844 14.660157-5.179688 22.199219 7.539063 2.539062 16.195313.828125 22.199219-5.179688 6.007812-6.003906 7.714844-14.660156 5.179688-22.195312zm0 0" fill="#ff4397"/><path d="m129.824219 413.277344c-4.699219-4.699219-14.640625-2.382813-22.199219 5.179687-7.558594 7.558594-9.878906 17.496094-5.175781 22.195313 4.699219 4.703125 14.636719 2.382812 22.195312-5.175782 7.5625-7.558593 9.878907-17.5 5.179688-22.199218zm0 0" fill="#ff4397"/><path d="m457.179688 320.035156c-7.539063-2.542968-16.195313-.828125-22.203126 5.175782-6.003906 6.007812-7.714843 14.660156-5.175781 22.199218 7.539063 2.539063 16.191407.828125 22.195313-5.175781 6.011718-6.007813 7.71875-14.664063 5.183594-22.199219zm0 0" fill="#ff4397"/><path d="m463.546875 166.347656c6.324219-10.214844 9.878906-21.679687 9.878906-33.796875 0-36.304687-31.828125-66.753906-74.761719-75.121093-25.894531-32.480469-66.53125-53.425782-112.257812-53.425782s-86.363281 20.945313-112.257812 53.421875c-42.933594 8.367188-74.761719 38.820313-74.761719 75.121094 0 12.121094 3.554687 23.585937 9.878906 33.800781-22.238281 14.191406-36.453125 35.835938-36.453125 60.089844 0 42.753906 44.136719 77.414062 98.582031 77.414062 32.167969 0 60.734375-12.109374 78.730469-30.828124 11.582031 2.953124 23.738281 4.546874 36.28125 4.546874s24.699219-1.59375 36.28125-4.546874c17.996094 18.71875 46.558594 30.828124 78.730469 30.828124 54.445312 0 98.582031-34.660156 98.582031-77.414062 0-24.253906-14.214844-45.894531-36.453125-60.089844zm0 0" fill="#ff4397"/><path d="m109.265625 166.347656c-6.324219-10.214844-9.878906-21.679687-9.878906-33.796875 0-36.304687 31.828125-66.753906 74.761719-75.121093 25.894531-32.480469 66.535156-53.425782 112.257812-53.425782 13.234375 0 26.042969 1.765625 38.195312 5.046875-6.339843-.835937-12.804687-1.285156-19.382812-1.285156-45.726562 0-86.363281 20.945313-112.257812 53.425781-42.929688 8.367188-74.757813 38.820313-74.757813 75.121094 0 12.121094 3.554687 23.585938 9.875 33.796875-22.234375 14.195313-36.453125 35.835937-36.453125 60.09375 0 33.460937 27.042969 61.960937 64.902344 72.769531-47.390625-5.628906-83.714844-37.75-83.714844-76.53125 0-24.257812 14.214844-45.898437 36.453125-60.09375zm0 0" fill="#ff61b5"/><path d="m463.546875 166.347656c6.324219-10.214844 9.878906-21.679687 9.878906-33.796875 0-36.304687-31.828125-66.753906-74.761719-75.121093-25.894531-32.480469-66.53125-53.425782-112.257812-53.425782-13.234375 0-26.042969 1.765625-38.195312 5.046875 6.339843-.839843 12.804687-1.285156 19.382812-1.285156 45.722656 0 86.363281 20.945313 112.257812 53.421875 42.929688 8.367188 74.757813 38.820312 74.757813 75.121094 0 12.121094-3.554687 23.585937-9.875 33.800781 22.234375 14.191406 36.453125 35.835937 36.453125 60.089844 0 33.464843-27.042969 61.964843-64.902344 72.773437 47.390625-5.628906 83.714844-37.75 83.714844-76.535156 0-24.253906-14.214844-45.894531-36.453125-60.089844zm0 0" fill="#e12579"/><path d="m401.417969 307.851562c-31.402344 0-60.398438-11.050781-79.980469-30.398437-22.898438 5.46875-47.164062 5.46875-70.0625 0-19.578125 19.347656-48.578125 30.398437-79.980469 30.398437-56.5625 0-102.582031-36.523437-102.582031-81.414062 0-23.683594 12.738281-45.851562 35.09375-61.332031-5.652344-10.269531-8.515625-21.207031-8.515625-32.558594 0-37.195313 31.402344-69.414063 76.550781-78.757813 27.835938-34.203124 69.46875-53.789062 114.464844-53.789062s86.628906 19.585938 114.464844 53.789062c45.148437 9.34375 76.550781 41.5625 76.550781 78.757813 0 11.355469-2.863281 22.292969-8.519531 32.558594 22.359375 15.484375 35.097656 37.648437 35.097656 61.332031 0 44.890625-46.019531 81.414062-102.582031 81.414062zm-78.730469-38.828124c1.074219 0 2.121094.433593 2.882812 1.230468 18.078126 18.808594 45.726563 29.597656 75.847657 29.597656 52.152343 0 94.582031-32.933593 94.582031-73.414062 0-22.007812-12.613281-42.679688-34.605469-56.71875-1.84375-1.175781-2.398437-3.617188-1.246093-5.476562 6.152343-9.945313 9.277343-20.609376 9.277343-31.695313 0-33.707031-29.414062-62.988281-71.527343-71.195313-.929688-.183593-1.769532-.691406-2.359376-1.433593-26.308593-32.996094-66.085937-51.917969-109.132812-51.917969s-82.824219 18.921875-109.128906 51.917969c-.59375.742187-1.429688 1.25-2.363282 1.433593-42.113281 8.207032-71.527343 37.488282-71.527343 71.199219 0 11.085938 3.125 21.75 9.277343 31.691407 1.152344 1.863281.597657 4.300781-1.25 5.480468-21.988281 14.039063-34.601562 34.710938-34.601562 56.71875 0 40.480469 42.429688 73.410156 94.582031 73.410156 30.121094 0 57.765625-10.789062 75.84375-29.597656 1-1.039062 2.484375-1.460937 3.875-1.105468 23.011719 5.875 47.574219 5.875 70.585938 0 .328125-.085938.660156-.125.988281-.125zm0 0" fill="#690589"/><path d="m377.476562 212.285156-43.539062-26.367187-47.53125 78.484375-47.53125-78.484375-43.539062 26.367187 66.132812 109.203125v171.445313h50.902344v-173.144532zm0 0" fill="#ff9f70"/><path d="m363.378906 203.746094-69.820312 116.042968v173.144532h18.8125v-173.144532l65.105468-107.503906zm0 0" fill="#e18152"/><path d="m312.371094 496.933594h-50.898438c-2.207031 0-4-1.792969-4-4v-170.324219l-65.558594-108.253906c-.546874-.90625-.710937-1.996094-.460937-3.027344.253906-1.027344.90625-1.917969 1.8125-2.464844l43.542969-26.367187c1.890625-1.140625 4.351562-.539063 5.492187 1.351562l44.109375 72.835938 44.109375-72.835938c1.144531-1.890625 3.601563-2.492187 5.496094-1.351562l43.539063 26.367187c.90625.546875 1.558593 1.4375 1.8125 2.464844.25 1.03125.085937 2.121094-.464844 3.027344l-64.527344 106.550781v172.027344c-.003906 2.207031-1.796875 4-4.003906 4zm-46.902344-8h42.902344v-169.144532c0-.730468.199218-1.445312.578125-2.070312l63.03125-104.085938-36.695313-22.222656-45.457031 75.066406c-.722656 1.199219-2.023437 1.929688-3.421875 1.929688s-2.699219-.730469-3.421875-1.929688l-45.457031-75.066406-36.699219 22.222656 64.0625 105.789063c.378906.625.578125 1.339844.578125 2.070313zm0 0" fill="#690589"/><path d="m235.339844 254.46875c-1.355469 0-2.675782-.683594-3.429688-1.925781l-14.324218-23.660157c-1.144532-1.890624-.542969-4.347656 1.347656-5.492187s4.351562-.539063 5.496094 1.347656l14.328124 23.660157c1.140626 1.890624.539063 4.347656-1.351562 5.492187-.648438.394531-1.363281.578125-2.066406.578125zm0 0" fill="#690589"/><path d="m204.015625 104.011719c0 55.230469-44.773437 100.007812-100.007813 100.007812-55.234374 0-100.007812-44.777343-100.007812-100.007812 0-55.234375 44.773438-100.007813 100.007812-100.007813 55.234376 0 100.007813 44.773438 100.007813 100.007813zm0 0" fill="#ff4397"/><path d="m104.007812 4.003906c-2.242187 0-4.460937.097656-6.667968.242188 52.121094 3.4375 93.34375 46.773437 93.34375 99.765625 0 52.992187-41.222656 96.328125-93.34375 99.765625 2.207031.144531 4.425781.246094 6.667968.246094 55.234376 0 100.007813-44.777344 100.007813-100.007813 0-55.234375-44.773437-100.011719-100.007813-100.011719zm0 0" fill="#e12579"/><path d="m104.007812 204.019531c2.246094 0 4.460938-.097656 6.667969-.246093-52.121093-3.433594-93.339843-46.769532-93.339843-99.761719 0-52.992188 41.21875-96.328125 93.339843-99.765625-2.207031-.144532-4.421875-.246094-6.667969-.246094-55.230468.003906-100.007812 44.777344-100.007812 100.011719 0 55.230469 44.777344 100.007812 100.007812 100.007812zm0 0" fill="#ff61b5"/><path d="m104.007812 208.019531c-57.351562 0-104.007812-46.65625-104.007812-104.007812 0-57.355469 46.65625-104.00781275 104.007812-104.00781275 57.351563 0 104.011719 46.65624975 104.011719 104.00781275 0 57.347656-46.660156 104.007812-104.011719 104.007812zm0-200.015625c-52.941406 0-96.007812 43.066406-96.007812 96.007813 0 52.9375 43.066406 96.007812 96.007812 96.007812 52.941407 0 96.011719-43.070312 96.011719-96.007812 0-52.941407-43.070312-96.007813-96.011719-96.007813zm0 0" fill="#690589"/><path d="m164.085938 142.238281-38.230469-38.226562 38.230469-38.230469-21.847657-21.84375-38.230469 38.226562-38.226562-38.226562-21.847656 21.84375 38.230468 38.230469-38.230468 38.226562 21.847656 21.847657 38.226562-38.230469 38.230469 38.230469zm0 0" fill="#f4efed"/><path d="m142.238281 168.085938c-1.023437 0-2.046875-.390626-2.828125-1.171876l-35.398437-35.398437-35.402344 35.398437c-1.5625 1.5625-4.09375 1.5625-5.65625 0l-21.847656-21.847656c-.75-.75-1.171875-1.765625-1.171875-2.828125 0-1.058593.421875-2.078125 1.171875-2.828125l35.402343-35.398437-35.402343-35.402344c-.75-.75-1.171875-1.765625-1.171875-2.828125 0-1.058594.421875-2.078125 1.171875-2.828125l21.847656-21.84375c1.5625-1.5625 4.09375-1.5625 5.65625 0l35.398437 35.398437 35.402344-35.398437c1.5625-1.5625 4.09375-1.5625 5.65625 0l21.84375 21.84375c.75.75 1.175782 1.769531 1.175782 2.828125 0 1.0625-.425782 2.078125-1.175782 2.828125l-35.398437 35.402344 35.398437 35.398437c.75.75 1.175782 1.769532 1.175782 2.828125 0 1.0625-.425782 2.078125-1.175782 2.828125l-21.84375 21.847656c-.78125.78125-1.804687 1.171876-2.828125 1.171876zm-92.648437-25.847657 16.191406 16.191407 35.402344-35.402344c1.5-1.5 4.15625-1.5 5.65625 0l35.398437 35.402344 16.191407-16.191407-35.402344-35.398437c-.75-.75-1.171875-1.769532-1.171875-2.828125 0-1.058594.421875-2.078125 1.171875-2.828125l35.402344-35.402344-16.191407-16.1875-35.402343 35.398438c-1.5625 1.5625-4.09375 1.5625-5.65625 0l-35.398438-35.398438-16.191406 16.1875 35.402344 35.402344c.75.75 1.171874 1.769531 1.171874 2.828125 0 1.058593-.421874 2.078125-1.171874 2.828125zm0 0" fill="#690589"/><path d="m232.261719 321.734375c-6.621094-10.75-20.703125-14.09375-31.449219-7.472656-10.75 6.625-14.09375 20.707031-7.472656 31.453125 6.625 10.75 20.707031 14.09375 31.453125 7.472656 10.75-6.625 14.09375-20.707031 7.46875-31.453125zm0 0" fill="#f4efed"/><path d="m224.613281 447.167969v33.9375c0 6.53125-5.296875 11.832031-11.832031 11.832031-6.53125 0-11.828125-5.296875-11.828125-11.832031v-100.636719c0-6.53125 5.292969-11.832031 11.828125-11.832031 6.53125 0 11.832031 5.296875 11.832031 11.832031v1.074219c0 4.347656 3.535157 7.886719 7.882813 7.886719h26.488281c6.535156 0 11.828125 5.296874 11.828125 11.832031 0 6.53125-5.292969 11.828125-11.828125 11.828125h-26.488281c-2.726563 0-5.359375-.382813-7.882813-1.039063zm0 0" fill="#7bac51"/><g fill="#690589"><path d="m212.785156 360.578125c-14.808594 0-26.859375-12.046875-26.859375-26.855469 0-14.8125 12.046875-26.859375 26.859375-26.859375 14.808594 0 26.855469 12.046875 26.855469 26.859375 0 14.808594-12.046875 26.855469-26.855469 26.855469zm0-45.714844c-10.398437 0-18.859375 8.457031-18.859375 18.859375 0 10.398438 8.457031 18.855469 18.859375 18.855469 10.398438 0 18.855469-8.457031 18.855469-18.855469 0-10.402344-8.457031-18.859375-18.855469-18.859375zm0 0"/><path d="m212.785156 496.933594c-8.730468 0-15.828125-7.097656-15.828125-15.828125v-100.636719c0-8.730469 7.097657-15.832031 15.828125-15.832031 8.726563 0 15.828125 7.101562 15.828125 15.832031v1.074219c0 2.144531 1.742188 3.886719 3.882813 3.886719h26.488281c8.730469 0 15.828125 7.101562 15.828125 15.832031 0 8.726562-7.097656 15.828125-15.828125 15.828125h-26.488281c-1.28125 0-2.578125-.074219-3.882813-.226563v64.242188c0 8.730469-7.101562 15.828125-15.828125 15.828125zm0-124.292969c-4.316406 0-7.828125 3.511719-7.828125 7.828125v100.636719c0 4.320312 3.511719 7.832031 7.828125 7.832031s7.828125-3.511719 7.828125-7.832031v-69.054688c0-1.238281.574219-2.40625 1.550781-3.164062.980469-.757813 2.257813-1.019531 3.453126-.707031 2.332031.605468 4.648437.910156 6.878906.910156h26.488281c4.316406 0 7.828125-3.511719 7.828125-7.828125 0-4.320313-3.511719-7.832031-7.828125-7.832031h-26.488281c-6.550782 0-11.882813-5.332032-11.882813-11.886719v-1.074219c0-4.316406-3.511719-7.828125-7.828125-7.828125zm0 0"/><path d="m329 430.96875c-2.207031 0-4-1.792969-4-4v-49c0-2.207031 1.792969-4 4-4s4 1.792969 4 4v49c0 2.207031-1.792969 4-4 4zm0 0"/><path d="m343.5 422.96875c-2.207031 0-4-1.792969-4-4v-29c0-2.207031 1.792969-4 4-4s4 1.792969 4 4v29c0 2.207031-1.792969 4-4 4zm0 0"/><path d="m124.273438 358.269531c-2.757813 0-5.550782-.449219-8.277344-1.367187-1.183594-.398438-2.113282-1.328125-2.511719-2.511719-3.132813-9.300781-.78125-19.382813 6.140625-26.300781 6.921875-6.925782 17-9.273438 26.304688-6.140625 1.183593.398437 2.113281 1.328125 2.511718 2.511719 3.132813 9.304687.78125 19.382812-6.140625 26.304687-4.894531 4.894531-11.367187 7.503906-18.027343 7.503906zm-3.75-8.402343c5.820312 1.246093 11.847656-.484376 16.125-4.757813 4.273437-4.273437 6.007812-10.300781 4.757812-16.125-5.816406-1.25-11.851562.488281-16.125 4.757813-4.269531 4.273437-6.007812 10.300781-4.757812 16.125zm0 0"/><path d="m382.238281 400.304688c-2.757812 0-5.546875-.445313-8.273437-1.363282-1.183594-.398437-2.113282-1.328125-2.511719-2.511718-3.132813-9.304688-.78125-19.382813 6.136719-26.304688 6.921875-6.917969 16.996094-9.269531 26.304687-6.140625 1.183594.402344 2.117188 1.332031 2.511719 2.515625 3.132812 9.300781.785156 19.382812-6.136719 26.300781-4.894531 4.898438-11.371093 7.503907-18.03125 7.503907zm-3.746093-8.402344c5.828124 1.257812 11.851562-.484375 16.121093-4.753906 4.273438-4.273438 6.011719-10.300782 4.757813-16.121094-5.820313-1.253906-11.847656.484375-16.125 4.753906-4.269532 4.269531-6.007813 10.296875-4.753906 16.121094zm0 0"/><path d="m421.96875 445.8125c-2.757812 0-5.542969-.449219-8.269531-1.363281-1.183594-.402344-2.117188-1.332031-2.515625-2.515625-3.132813-9.304688-.78125-19.382813 6.140625-26.304688 6.921875-6.917968 17-9.273437 26.300781-6.140625 1.1875.402344 2.117188 1.332031 2.515625 2.515625 3.132813 9.304688.785156 19.382813-6.136719 26.304688-4.894531 4.894531-11.371094 7.503906-18.035156 7.503906zm-3.746094-8.40625c5.835938 1.25 11.851563-.484375 16.125-4.757812 4.273438-4.269532 6.011719-10.296876 4.757813-16.121094-5.828125-1.246094-11.847657.488281-16.125 4.757812-4.269531 4.273438-6.007813 10.300782-4.757813 16.121094zm0 0"/><path d="m157.390625 408.8125c-2.757813 0-5.546875-.449219-8.273437-1.363281-1.183594-.402344-2.113282-1.332031-2.511719-2.515625-3.136719-9.304688-.785157-19.382813 6.136719-26.304688 6.917968-6.917968 17-9.273437 26.300781-6.140625 1.1875.402344 2.117187 1.332031 2.515625 2.515625 3.132812 9.304688.785156 19.382813-6.136719 26.304688-4.894531 4.894531-11.371094 7.503906-18.03125 7.503906zm-3.746094-8.40625c5.8125 1.25 11.84375-.484375 16.121094-4.757812 4.273437-4.269532 6.011719-10.296876 4.757813-16.121094-5.824219-1.246094-11.851563.488281-16.125 4.757812-4.269532 4.273438-6.007813 10.300782-4.753907 16.121094zm0 0"/><path d="m109.445312 445.8125c-2.757812 0-5.546874-.449219-8.269531-1.363281-1.1875-.402344-2.117187-1.332031-2.515625-2.515625-3.132812-9.304688-.78125-19.382813 6.140625-26.304688 6.917969-6.917968 17-9.273437 26.300781-6.140625 1.1875.402344 2.117188 1.332031 2.515626 2.515625 3.132812 9.304688.78125 19.382813-6.140626 26.304688-4.890624 4.894531-11.367187 7.503906-18.03125 7.503906zm-3.746093-8.40625c5.835937 1.25 11.851562-.484375 16.125-4.757812 4.273437-4.269532 6.011719-10.296876 4.757812-16.121094-5.828125-1.246094-11.851562.488281-16.125 4.757812-4.269531 4.273438-6.007812 10.300782-4.757812 16.121094zm0 0"/><path d="m436.796875 352.566406c-2.757813 0-5.550781-.449218-8.273437-1.363281-1.183594-.402344-2.117188-1.332031-2.515626-2.515625-3.132812-9.300781-.78125-19.382812 6.140626-26.304688 6.921874-6.917968 17-9.269531 26.304687-6.140624 1.183594.402343 2.113281 1.332031 2.511719 2.515624 3.132812 9.300782.78125 19.382813-6.140625 26.300782-4.890625 4.898437-11.367188 7.507812-18.027344 7.507812zm-3.75-8.40625c5.824219 1.25 11.851563-.480468 16.125-4.757812 4.273437-4.269532 6.011719-10.296875 4.757813-16.121094-5.824219-1.25-11.851563.484375-16.125 4.757812-4.269532 4.273438-6.007813 10.300782-4.757813 16.121094zm0 0"/></g></svg>